<svg xmlns="http://www.w3.org/2000/svg" width="20" height="18" viewBox="0 0 20 18">
    <g fill="#0E1317" fill-rule="evenodd">
        <path d="M17.273 1.8h-.91V.9c0-.497-.406-.9-.908-.9a.905.905 0 0 0-.91.9v.9h-9.09V.9c0-.497-.407-.9-.91-.9a.905.905 0 0 0-.909.9v.9h-.909C1.221 1.8 0 3.009 0 4.5v10.8C0 16.791 1.221 18 2.727 18h14.546C18.779 18 20 16.791 20 15.3V4.5c0-1.491-1.221-2.7-2.727-2.7zM1.818 4.5c0-.497.407-.9.91-.9h14.545c.502 0 .909.403.909.9v.9H1.818v-.9zm16.364 10.8c0 .497-.407.9-.91.9H2.728a.905.905 0 0 1-.909-.9V7.2h16.364v8.1z"/>
        <rect width="2.727" height="2.7" x="3.636" y="9" fill-rule="nonzero" rx=".72"/>
        <rect width="2.727" height="2.7" x="8.182" y="9" fill-rule="nonzero" rx=".72"/>
    </g>
</svg>
