<svg xmlns="http://www.w3.org/2000/svg" width="16" height="22" viewBox="0 0 16 22">
    <path fill="#0E1317" fill-rule="nonzero" d="M2.667 11h2.666v7.333a2.787 2.787 0 0 0 .948 2.152 2.609 2.609 0 0 0 2.217.598c1.308-.289 2.224-1.508 2.169-2.887V11h2.666C14.806 11 16 9.769 16 8.25V6.417c0-1.52-1.194-2.75-2.667-2.75h-2.666c0-.82-.353-1.597-.966-2.12A2.608 2.608 0 0 0 7.502.963c-1.242.275-2.14 1.393-2.169 2.704H2.667C1.194 3.667 0 4.897 0 6.417V8.25C0 9.769 1.194 11 2.667 11zm6.222 7.333c0 .507-.398.917-.889.917-.49 0-.889-.41-.889-.917V11H8.89v7.333zM7.947 2.75c.49 0 .889.41.889.917H7.058c0-.507.398-.917.889-.917zm-6.17 3.667c0-.507.399-.917.89-.917h10.666c.491 0 .89.41.89.917V8.25c0 .506-.399.917-.89.917H2.667c-.491 0-.89-.41-.89-.917V6.417z"/>
</svg>
